<svg width="29" height="29" viewBox="0 0 29 29" fill="none" xmlns="http://www.w3.org/2000/svg">
<g clip-path="url(#clip0_201_97077)">
<path d="M2.76172 17.61L7.83593 12.442C7.9414 12.3365 8.04687 12.2779 8.15234 12.2779C8.25781 12.2779 8.36328 12.3365 8.46875 12.442L12.7812 16.86C13.2851 17.3874 13.8125 17.6334 14.3632 17.6334C14.9257 17.6334 15.4296 17.3874 15.957 16.86L20.7382 12.0553L22.6601 13.9889C23.082 14.4108 23.6328 14.153 23.7851 13.5553L25.5195 6.6881C25.6601 6.14904 25.1914 5.70373 24.664 5.84435L17.8085 7.56701C17.2109 7.73107 16.9531 8.27013 17.375 8.69201L19.3085 10.6256L14.6914 15.3014C14.5859 15.4069 14.4687 15.4655 14.3632 15.4655C14.2695 15.4655 14.1523 15.4069 14.0468 15.3014L9.73437 10.8834C9.21875 10.3561 8.70312 10.11 8.15234 10.11C7.60156 10.11 7.10937 10.3443 6.57031 10.8834L1.33203 16.192L2.76172 17.61Z" fill="#2E67D6"/>
<path d="M1.02734 23.9263C1.02734 24.4888 1.40234 24.8521 1.96484 24.8521H25.2734C25.789 24.8521 26.2226 24.4419 26.2226 23.9146C26.2226 23.399 25.789 22.9771 25.2734 22.9771H3.24218C2.99609 22.9771 2.91406 22.8951 2.91406 22.649V4.12158C2.91406 3.61768 2.49218 3.18408 1.97656 3.18408C1.44922 3.18408 1.02734 3.61768 1.02734 4.12158V23.9263Z" fill="#2E67D6"/>
</g>
<defs>
<clipPath id="clip0_201_97077">
<rect width="25.1953" height="21.8086" fill="white" transform="translate(1.02734 3.04346)"/>
</clipPath>
</defs>
</svg>
