<svg width="29" height="29" viewBox="0 0 29 29" fill="none" xmlns="http://www.w3.org/2000/svg">
<g clip-path="url(#clip0_201_81471)">
<path d="M4.81152 21.9981H23.3858C24.4873 21.9981 25.1553 21.4355 25.1553 20.5801C25.1553 19.4082 23.96 18.3535 22.9522 17.3105C22.1787 16.502 21.9678 14.8379 21.874 13.4902C21.792 8.99024 20.5967 5.89649 17.4795 4.77149C17.0342 3.23633 15.8272 2.0293 14.0928 2.0293C12.3701 2.0293 11.1514 3.23633 10.7178 4.77149C7.60058 5.89649 6.40527 8.99024 6.32324 13.4902C6.22949 14.8379 6.01855 16.502 5.24511 17.3105C4.22558 18.3535 3.04199 19.4082 3.04199 20.5801C3.04199 21.4355 3.69824 21.9981 4.81152 21.9981ZM14.0928 26.6973C16.085 26.6973 17.5381 25.2441 17.6904 23.6035H10.5068C10.6592 25.2441 12.1123 26.6973 14.0928 26.6973Z" fill="white"/>
</g>
<defs>
<clipPath id="clip0_201_81471">
<rect width="22.1133" height="24.668" fill="white" transform="translate(3.04199 2.0293)"/>
</clipPath>
</defs>
</svg>
